<svg version="1.2" xmlns="http://www.w3.org/2000/svg" viewBox="0 0 692 532" width="692" height="532">
	<title>397-ai</title>
	<style>
		.s0 { fill: #ccdef2 } 
		.s1 { fill: none;stroke: #e5785c;stroke-linecap: round;stroke-linejoin: round;stroke-width: 16.7 } 
		.s2 { fill: #72504c } 
		.s3 { fill: none;stroke: #354242;stroke-linecap: round;stroke-linejoin: round;stroke-width: 34.5 } 
		.s4 { fill: none;stroke: #354242;stroke-linecap: round;stroke-linejoin: round;stroke-width: 12.9 } 
		.s5 { fill: #354242 } 
		.s6 { fill: #1d2021 } 
		.s7 { fill: #2d3133 } 
		.s8 { fill: #9099a3 } 
		.s9 { fill: #3b3f42 } 
		.s10 { fill: #ff881d } 
		.s11 { fill: #e2620c } 
		.s12 { fill: #3c4949 } 
		.s13 { fill: #333332 } 
		.s14 { fill: #ea6a13 } 
		.s15 { fill: #b74d2c } 
		.s16 { fill: #332316 } 
		.s17 { fill: #602c34 } 
		.s18 { fill: #4f342f } 
		.s19 { fill: #9b2a35 } 
		.s20 { fill: #ffe14e } 
		.s21 { opacity: .5;fill: #d64404 } 
		.s22 { fill: #751931 } 
		.s23 { fill: #8e3925 } 
		.s24 { fill: #ffb287 } 
		.s25 { fill: #e5785c } 
		.s26 { fill: #422b27 } 
		.s27 { fill: none;stroke: #8e3925;stroke-linecap: round;stroke-miterlimit:10;stroke-width: 3.1 } 
		.s28 { fill: none;stroke: #e5785c;stroke-linecap: round;stroke-miterlimit:10;stroke-width: 3.4 } 
		.s29 { opacity: .6;mix-blend-mode: multiply;fill: #c67560 } 
		.s30 { fill: #fca903 } 
		.s31 { fill: #d86619 } 
		.s32 { fill: #ede9e6;stroke: #ede9e6;stroke-linejoin: round;stroke-width: .6 } 
		.s33 { fill: #631729 } 
		.s34 { fill: #ffffff } 
		.s35 { fill: #b6b8bf } 
		.s36 { fill: #4c888e } 
		.s37 { fill: #c44e1a } 
		.s38 { fill: none;stroke: #354242;stroke-linecap: round;stroke-linejoin: round;stroke-width: 10.8 } 
		.s39 { fill: #ffd18d } 
		.s40 { fill: #d88850 } 
		.s41 { opacity: .5;mix-blend-mode: multiply;fill: none;stroke: #c9804f;stroke-miterlimit:10;stroke-width: 4.3 } 
		.s42 { fill: #ce683c } 
		.s43 { opacity: .8;fill: #c2d8ef } 
		.s44 { fill: #ba6145 } 
		.s45 { fill: #a86951 } 
		.s46 { fill: #ffdb80 } 
		.s47 { fill: #e29a4b } 
		.s48 { fill: #b87a53 } 
		.s49 { fill: #efbb67 } 
		.s50 { fill: #c48e47 } 
		.s51 { fill: none;stroke: #ffb287;stroke-linecap: round;stroke-linejoin: round;stroke-width: 4.3 } 
		.s52 { fill: #ede9e6 } 
		.s53 { fill: #ffc229 } 
	</style>
	<g id="_Artboards_">
	</g>
	<g id="Layer 1">
		<g id="&lt;Group&gt;">
			<g id="&lt;Group&gt;">
				<path id="&lt;Path&gt;" class="s0" d="m673.6 521.2c0-3.6-3.6-6.6-8-6.6h-679.8c-4.4 0-8 3-8 6.6 0 3.7 3.6 6.6 8 6.6h679.8c4.4 0 8-2.9 8-6.6z"/>
			</g>
			<g id="&lt;Group&gt;">
				<path id="&lt;Path&gt;" class="s1" d="m101.9 148.4l13.5 67c0.6 2.7 3.3 4.6 6 4.2l31.6-4.9"/>
			</g>
			<path id="&lt;Path&gt;" class="s2" d="m475.7 490.7h199.8v12.1h-199.8z"/>
			<path id="&lt;Path&gt;" class="s3" d="m195.9 366.6l10.8 31.2"/>
			<path id="&lt;Path&gt;" class="s4" d="m146.2 217.5l49.9 150.9"/>
			<g id="&lt;Group&gt;">
				<path id="&lt;Path&gt;" class="s5" d="m221.3 447.7c0 7.1-5.8 13-13 13h-20.8c-7.1 0-12.9-5.9-12.9-13v-14c0-7.1 0-18.7 0-25.8v-5.8c0-7.1 5.8-12.9 12.9-12.9h20.8c7.2 0 13 5.8 13 12.9z"/>
			</g>
			<g id="&lt;Group&gt;">
				<g id="&lt;Group&gt;">
					<path id="&lt;Path&gt;" class="s6" d="m565 490.3c6.6 0 11.9 7.5 11.9 16.7 0 9.2-5.3 16.6-11.9 16.6h-16.9v-33.3z"/>
					<path id="&lt;Path&gt;" class="s7" d="m536.9 507c0 9.2 5.3 16.6 11.9 16.6 6.6 0 11.9-7.4 11.9-16.6 0-9.2-5.3-16.7-11.9-16.7-6.6 0-11.9 7.5-11.9 16.7z"/>
					<path id="&lt;Path&gt;" class="s8" d="m544.1 507c0 3.6 2.1 6.6 4.7 6.6 2.6 0 4.7-3 4.7-6.6 0-3.7-2.1-6.6-4.7-6.6-2.6 0-4.7 2.9-4.7 6.6z"/>
				</g>
				<g id="&lt;Group&gt;">
					<path id="&lt;Path&gt;" class="s9" d="m591.8 490.3c6.6 0 11.9 7.5 11.9 16.7 0 9.2-5.3 16.6-11.9 16.6h-16.9v-33.3z"/>
					<path id="&lt;Path&gt;" class="s7" d="m563.7 507c0 9.2 5.3 16.6 11.9 16.6 6.6 0 12-7.4 12-16.6 0-9.2-5.4-16.7-12-16.7-6.6 0-11.9 7.5-11.9 16.7z"/>
					<path id="&lt;Path&gt;" class="s8" d="m570.9 507c0 3.6 2.1 6.6 4.7 6.6 2.6 0 4.7-3 4.7-6.6 0-3.7-2.1-6.6-4.7-6.6-2.6 0-4.7 2.9-4.7 6.6z"/>
				</g>
				<path id="&lt;Path&gt;" class="s10" d="m336.5 491.5h321v-15.8h-321z"/>
				<path id="&lt;Path&gt;" class="s11" d="m250.3 491.5h342.6v-15.8h-342.6z"/>
				<path id="&lt;Path&gt;" class="s10" d="m647.2 491.5h10.3v-15.8h-10.3z"/>
				<path id="&lt;Path&gt;" class="s2" d="m381.4 490.7h190.3v12.1h-190.3z"/>
			</g>
			<g id="&lt;Group&gt;">
				<path id="&lt;Path&gt;" class="s12" d="m235.8 471.9q0.2 0 0.5 0c9.7 0.4 17.5 11.8 17.5 25.9 0 14.2-8 25.8-18 25.8h-12.6l-1.6-51.7"/>
				<g id="&lt;Group&gt;">
					<g id="&lt;Group&gt;">
						<path id="&lt;Path&gt;" class="s8" d="m223.8 517.8c-6.3 0-11.8-8.4-12.2-18.7q0-0.6 0-1.3c0-10.7 5.7-20.1 12.2-20.1h0.1 0.1c5.8 0.2 12 8.3 12 20.1 0 10.7-5.7 20-12.2 20z"/>
						<g id="&lt;Group&gt;">
							<path id="&lt;Compound Path&gt;" fill-rule="evenodd" class="s13" d="m224.2 471.9c9.7 0.4 17.5 11.8 17.5 25.9 0 14.2-8 25.8-17.9 25.8-9.6 0-17.4-10.7-18-24.2q0-0.8 0-1.6c0-14.3 8-25.9 18-25.9q0.2 0 0.4 0zm-6.8 25.9q0 0.5 0 1.1c0.4 8.5 4.7 13.1 6.4 13.1 1.9 0 6.4-5.4 6.4-14.2 0-9.1-4.5-14.2-6.4-14.3h-0.1c-1.9 0.1-6.3 5.5-6.3 14.3z"/>
						</g>
					</g>
				</g>
			</g>
			<g id="&lt;Group&gt;">
				<path id="&lt;Path&gt;" class="s12" d="m207.5 471.9q0.2 0 0.4 0c9.7 0.4 17.5 11.8 17.5 25.9 0 14.2-8 25.8-17.9 25.8h-12.2l2.3-51.7"/>
				<g id="&lt;Group&gt;">
					<g id="&lt;Group&gt;">
						<path id="&lt;Path&gt;" class="s8" d="m195.4 517.8c-6.3 0-11.7-8.4-12.2-18.7q0-0.6 0-1.3c0-10.7 5.7-20.1 12.2-20.1h0.1 0.1c5.8 0.2 12 8.3 12 20.1 0 10.7-5.7 20-12.2 20z"/>
						<g id="&lt;Group&gt;">
							<path id="&lt;Compound Path&gt;" fill-rule="evenodd" class="s13" d="m195.8 471.9c9.8 0.4 17.6 11.8 17.6 25.9 0 14.2-8.1 25.8-18 25.8-9.6 0-17.4-10.7-18-24.2q0-0.8 0-1.6c0-14.3 8.1-25.9 18-25.9q0.2 0 0.4 0zm-6.8 25.9q0 0.5 0 1.1c0.4 8.5 4.7 13.1 6.4 13.1 2 0 6.4-5.4 6.4-14.2 0-9.1-4.5-14.2-6.4-14.3-2 0.1-6.4 5.5-6.4 14.3z"/>
						</g>
					</g>
				</g>
			</g>
			<g id="&lt;Group&gt;">
				<path id="&lt;Path&gt;" class="s5" d="m218.4 465.7c0 3.5-2.9 6.4-6.5 6.4h-48.8c-3.6 0-6.5-2.9-6.5-6.4v-14.5c0-3.6 2.9-6.5 6.5-6.5h48.8c3.6 0 6.5 2.9 6.5 6.5z"/>
			</g>
			<g id="&lt;Group&gt;">
				<g id="&lt;Group&gt;">
					<path id="&lt;Path&gt;" class="s14" d="m275.1 473.8c0.8 7.8-5 14.1-12.8 14.1h-63.4c-7.8 0-13.4-6.3-12.4-14l10.8-82.8c1.1-7.8 8.3-14.1 16.1-14.1h37.8c7.8 0 14.8 6.3 15.6 14.1z"/>
				</g>
				<path id="&lt;Path&gt;" class="s15" d="m293.1 487.9h-74.8c-4.1 0-7.6-1.7-9.8-4.4-2.1-2.5-3.1-5.9-2.6-9.7l10.8-82.7c1-7.8 8.2-14.1 16-14.1h23.7c1.9 0 3.9 0.4 5.8 1 5.8 2 11.1 6.9 12.9 12.5l27.8 84c2.4 7.4-2 13.4-9.8 13.4z"/>
				<path id="&lt;Path&gt;" class="s14" d="m310.5 486.1h-93.4l4.5-15.8 4-14.1c2.1-8.9 7.2-14.1 15.1-14.1h36.6c7.8 0 15.6 6.4 17.4 14.1l6.2 14.1z"/>
			</g>
			<g id="&lt;Group&gt;">
				<g id="&lt;Group&gt;">
					<path id="&lt;Path&gt;" class="s14" d="m306.7 482.2c0 3.6-2.9 6.5-6.4 6.5h-146.5c-3.6 0-6.6-2.9-6.6-6.5l-0.1-7.6c-0.1-3.5 2.7-6.4 6.3-6.4h146.9c3.5 0 6.4 2.9 6.4 6.4z"/>
				</g>
				<g id="&lt;Group&gt;">
					<path id="&lt;Path&gt;" class="s15" d="m330.4 468.2c3.6 0 6.5 2.9 6.5 6.4v7.6c0 3.5-2.9 6.4-6.5 6.4h-124.9c-3.6 0-6.5-2.9-6.5-6.4v-7.6c0-3.5 2.9-6.4 6.5-6.4z"/>
				</g>
			</g>
			<g id="&lt;Group&gt;">
				<g id="&lt;Group&gt;">
					<g id="&lt;Group&gt;">
						<g id="&lt;Group&gt;">
							<path id="&lt;Path&gt;" class="s16" d="m94.3 495.6c-0.5 2.1 0.7 3.1 0.8 3.6 2.2 8.2 24.7 5.4 25.7 4.5 0.9-0.8 3.3-23.4 3-24.5-0.4-1-15.3-1.4-17.5-1.5-2.1-0.1-7.7-2.9-6.7-2.2 0.4 0.2-4.7 18-5.3 20.1z"/>
							<path id="&lt;Path&gt;" class="s16" d="m67.2 512.7c1.7 1.6 0.6 10.7-1.9 11.1-1.4 0.2-9.7 0.7-14.3 0.9-6.2 0.3-19-2.1-24.9-4.3-3.3-1.3-9.5-3.7-9.5-3.7 0 0-9-2.4-9.5-2.6-0.4-0.3-0.4-4.1-0.4-4.1 0 0 21-2.9 21.7-2.6 0.8 0.4 17.6 9.7 17.6 9.7l19.4-4z"/>
							<g id="&lt;Group&gt;">
								<path id="&lt;Path&gt;" class="s17" d="m27.8 279.5l0.3 20c0.1 8.8 7.4 15.3 16.2 14.2l43.2-5.1c8.8-1 16-9.1 16-18v-45.5"/>
							</g>
							<g id="&lt;Group&gt;">
								<path id="&lt;Path&gt;" class="s16" d="m94.2 499.1c0 0-0.7 4.6 7.6 4 8-0.7 11.8-10.2 11.8-10.2l12.9-1.4c0 0 1.2 5.8 2.3 7.1 2.9 3.7 10.5 10.7 10.5 10.7l14.8-0.5c0 0 1.8 11.8-2.7 12.2-4.6 0.4-13.5 1-17.3 1.3-3.8 0.3-24-3.2-24-3.2 0 0-17 1.6-17 1.3-0.9-16 1.1-21.3 1.1-21.3z"/>
							</g>
							<path id="&lt;Path&gt;" class="s16" d="m93 523.6l25.8-1.3-0.1-3.9-11.6-1.9-14.8 0.9z"/>
							<path id="&lt;Path&gt;" class="s16" d="m7.3 516.9l14.7 4.5 1.7-2.2 0.5-3.1-2.6-2.3-14.8-1z"/>
							<path id="&lt;Path&gt;" class="s18" d="m155.9 511.1q0 0 0 0c0 0.2 0 1.2-0.1 2q-0.1 0.5-0.2 0.9c0 0.1 0 0.1 0 0.2q-0.1 0.1-0.1 0.3c0 0-0.1 0.1-0.1 0.1q-0.1 0.2-0.1 0.3c0 0.1 0 0.1 0 0.2q-0.1 0.2-0.3 0.5 0 0.1-0.1 0.2 0 0.1-0.1 0.2c0 0.1-0.1 0.1-0.1 0.2-0.1 0.1-0.1 0.1-0.1 0.2-0.1 0.1-0.2 0.2-0.3 0.3l-0.1 0.1q-0.1 0.1-0.2 0.2c0 0.1-0.1 0.1-0.1 0.1q-0.1 0.1-0.3 0.2c0 0 0 0.1-0.1 0.1q-0.1 0.1-0.3 0.1c-0.1 0.1-0.1 0.1-0.1 0.1q-0.2 0.1-0.3 0.1c-0.1 0-0.1 0-0.2 0q-0.2 0.1-0.3 0.1c-2.1 0.2-4.9 0.4-7.8 0.6-2.9 0.3-5.8 0.5-7.8 0.7-0.5 0-1 0-1.4 0.1q-0.2 0-0.4 0h-0.4q-0.2 0-0.3 0h-0.6c-0.1-0.1-0.2-0.1-0.3-0.1-0.1 0-0.3 0-0.4 0h-0.3c-0.1 0-0.3 0-0.5-0.1h-0.2q-0.3 0-0.6 0 0 0-0.1-0.1-0.4 0-0.8 0c-3.7-0.4-8.8-1.2-13-1.8-4.1-0.6-7.3-1.1-7.3-1.1 0 0-17.7 1.5-17.7 1.3-0.1-2.2-0.2-4.3-0.2-6.1v-0.8c0.1-10.7 2-14.5 2-14.5 0 0 1.1 6.1 10.1 4.5 6.3-1.2 8.3-7.5 8.8-9.9 0.1-0.7 0.2-1.1 0.2-1.1l3-0.2 7.4-0.6 2.8-0.3c0 0 0.2 0.9 0.4 2 0 0.2 0.1 0.3 0.1 0.5q0 0 0.1 0.1 0 0.2 0.1 0.5 0 0 0 0.1 0.1 0.2 0.2 0.5 0 0 0 0c0 0.2 0.1 0.4 0.1 0.6q0.1 0.1 0.1 0.1 0.1 0.3 0.1 0.5c0.1 0 0.1 0.1 0.1 0.1 0.1 1.7 1.9 3.5 1.9 3.5 3.4 3.8 9.6 9.4 9.6 9.4 0 0 4.4 0.4 8.4 0.1 4-0.3 7.9 1 8.2 4.4q0 0.2 0 0.4z"/>
							<path id="&lt;Path&gt;" class="s16" d="m127.9 494l-35.7 16.4c0.1-10.7 2-14.5 2-14.5 0 0 1.1 6.1 10.1 4.5 6.3-1.2 8.3-7.5 8.8-9.9l10.6-1.9z"/>
							<g id="&lt;Group&gt;">
								<path id="&lt;Path&gt;" class="s18" d="m24.9 492.1c-3.4-0.9-12.5-3.7-13.7-0.5-1.1 3.3-1.5 8.7-1.5 9.1 0.1 0.4 3.7 5.9 4.5 5.4 0.7-0.4 10.2-1 9.9-1.8-0.2-0.8 0.8-12.2 0.8-12.2z"/>
								<path id="&lt;Path&gt;" class="s16" d="m12.3 490.8c-0.5 2.2-0.3 3-0.1 3.4 2.1 8.2 24.7 5.4 25.6 4.5 0.9-0.8 3.4-23.4 3-24.5-0.4-1-15.3-1.4-17.5-1.5-2.1 0-7.7-2.9-6.7-2.2 0.5 0.3-3.7 18.2-4.3 20.3z"/>
								<path id="&lt;Path&gt;" class="s18" d="m65.9 519.7c-4.5 0.6-13.5 0.8-13.5 0.8-0.7 0-3.2 0.1-4.5 0-0.3-0.1-0.5-0.1-0.8-0.1q-0.2 0-0.4 0c-5.6-0.5-19.5-2.8-24.4-5.3-2.2-1.2-6-2.2-9.5-3.3-3.2-1-6.1-1.7-6.1-1.8 0.3-3.7 0.8-6.6 1.2-8.7 0.6-2.9 1.3-5.1 1.9-6.6 0.8-2.2 1.5-3.2 1.6-3.4-0.2 0.6-2.2 6.3 7.3 5.9 7.5-0.4 8.1-8.1 8.1-8.1l19.3 0.9c0 0-1.1 6.5-1.1 6.7 0.4 0.8 0.9 1.6 1.5 2.4 2.4 3 5.8 5.9 6.2 6.4q0 0 0 0c0.1 0 0.2 0.1 0.2 0.1 0 0 7.2 3.9 11.8 4 2.5 0 3.5 2 3.6 4 0.3 2.8-0.7 5.8-2.4 6.1z"/>
								<path id="&lt;Path&gt;" class="s16" d="m46.5 499.1c-0.7-1-2.6-1-6.8-0.3-6.3 1.1-25.7 2.8-29.9-4.1 0.8-2.2 1.3-3.5 1.4-3.6-0.1 0.5 1.2-2.8 8-1.5 7.4 1.4 7.6-0.5 7.6-0.5l19.3 0.9c0 0-1.1 6.5-1.1 6.7 0.4 0.8 0.9 1.6 1.5 2.4z"/>
							</g>
							<g id="&lt;Group&gt;">
								<path id="&lt;Path&gt;" class="s19" d="m23.2 493.6c15.3 3.8 27.8 3.7 29.3 0.2 0.4-1.1 2-11.7 4-25.3q0.5-2.9 0.9-6 0.3-2 0.6-4.1 0.4-3 0.8-6c3.6-25.1 9.5-64.5 9.5-64.5 3.1-13 0.5-13.6 4.7-147.1l-42.5-3.6-3 14.9c-1.1-1-3.6 28.5-3.6 32.5 0 56 0.9 105.4 0.6 106.5l-8 54.3-0.9 5.8-0.6 4.1-0.8 5.8-3.5 23.8c0 0-2.7 4.9 12.5 8.7z"/>
							</g>
							<path id="&lt;Path&gt;" class="s19" d="m127.8 494.1c0 0-9.6 1.2-17.8 1.5v0.1c-8.1 0-23.1 2.1-23.1 2.1l-1.1-22.6-0.3-5.2-0.1-1.3v-0.1l-0.2-4.3-0.1-0.8v-1.2l-0.2-3.6-0.1-0.8v-0.1l-0.3-5.5v-0.8l-3-56.2c-0.2-1.7-0.7-6.1-1.2-8.4-4.8-18.6-8-61.7-7.7-74.8l-23.2-69 44.4-10.9c0 0 3.7 28.1 9.6 54.1 8 35.1 19.8 93.6 20.1 102.4l2.3 56.7 0.2 3.5 0.1 3 0.1 2.8v0.7l0.2 3.2 0.1 2.7 0.1 3.8v0.5l0.3 6.6z"/>
							<g id="&lt;Group&gt;">
								<path id="&lt;Path&gt;" class="s20" d="m95 183.3l-2.5-13.1c-2.4-12.7-5.6-26.7-7.6-34.8l-3.3-12.9c0 0-8.9-8.8 3.4-8.8 14.5 0 23.2 11.4 25.8 24.8 2.7 14 8.3 40.1 8.3 40.1z"/>
								<path id="&lt;Path&gt;" class="s21" d="m109.4 180.6l-8.7-42.1-16.7 46.6z"/>
							</g>
							<path id="&lt;Path&gt;" class="s19" d="m24.5 280l0.9 30.4c0.4 8.9 7.1 3 15.9 1.7l46.3-6.9c8.8-1.3 15.9-9.7 15.9-18.5v-49.8"/>
							<path id="&lt;Path&gt;" class="s20" d="m47.2 113.6h36.5c11.9 0.1 21.2 10.9 21.2 23.5 0 0-2.3 106.5-2.5 114.5-0.1 0.9-2.1 2.5-2.1 2.5 0 0 5.5-3.8-25.5-3.6-36.4 0.3-50.9 34.1-50.9 34.1v-148.2c0-12.6 11.5-22.9 23.3-22.8z"/>
							<path id="&lt;Path&gt;" class="s21" d="m45.1 145l-3.3-0.9h-0.9l-10.6 7.1-3.5 43.7 5.4 12.6 25.4-9.7 1.2-33.8z"/>
							<path id="&lt;Path&gt;" class="s19" d="m104.4 193.9c0 0-0.5 24.7-0.9 61.1 0 0-79.6 63.4-79.6 31.9 0-1-0.1-2.1-0.2-3.3q0-0.9 0-1.8c-0.8-25.2 0.5-101.7 0.5-101.7l7.4 3.2v13c0 0 4-0.7 10.2-0.7q1.6 0 2.9-0.5c12.5-4.3 8.8-37.5 8.8-47.1h44.9c0 45.9 0.9 45.9 6 45.9z"/>
							<path id="&lt;Path&gt;" class="s22" d="m55 236.1c-16.1 0-31.3 15.3-31.3 45.7 0-26.2 0-106.3 0-106.3l7.9 7.8v13c0 0 4-0.7 10.2-0.7q1.6 0 2.9-0.5c1.3 2.5 2.1 4.2 2.1 4.2 0.8 29.3 53.8 9.7 53.8 18.6 0 19.4-15.7 18.2-45.6 18.2z"/>
							<g id="&lt;Group&gt;">
								<path id="&lt;Path&gt;" class="s23" d="m33.6 57.7c1.3 17.9 5.7 22.8 12.7 22.8 5.8 0 10.5-8 10.3-9.8-0.2-1.9-2.2-12.8-3.9-13.4-1.6-0.6-19.1 0.4-19.1 0.4z"/>
								<path id="&lt;Path&gt;" class="s23" d="m50 76.7c-1.1-2.3-1.8 4.9-1.8 4.1-0.3-15.3-13.4-3.9-14.4-20.8-0.9-14.4-1-14.5-1.4-21.5-0.8-13.9 7.3-28.7 37-28.5 16.5 0.2 20.8 6.6 24.5 15 7 15.7 1.4 35.9 1.4 35.9z"/>
								<path id="&lt;Path&gt;" class="s24" d="m76.8 114.7c0 0 0.2 5.9-9.4 5.9-9.5 0-15.5-5.9-15.5-5.9v-29.1l24.9-1.4z"/>
								<path id="&lt;Path&gt;" class="s25" d="m76.8 108.5c-6.6 0.8-24.7-1.6-24.7-5.8 0-4.3-0.2-23.3-0.2-23.3l24.9 0.2z"/>
								<path id="&lt;Path&gt;" class="s25" d="m98.2 70.1c0 5.7-5 18.9-8.1 22.8-1.3 1.7-3.1 5.5-7.3 6.8-3.8 1.2-6.1 2-6.1 4 0 2.3-4.6-2-6.3-2-19 0-28.4-20.6-28.4-34.5l5.9-18.4c0-15.3 10.1-26.3 24.9-26.2 14.8 0.1 26.7 10.2 26.7 25.5z"/>
								<path id="&lt;Path&gt;" class="s24" d="m99.9 47.5l-0.2 6.1-0.6 16.5c-0.5 16-4.1 30.9-23.6 30.7-19.5-0.1-24.7-23.7-24.2-38.9l1-13.3q0-0.9 0-1.7c0.4-19.9 8.5-27.2 22.8-27.2 19.5 0 25.3 12.5 24.8 27.8z"/>
								<g id="&lt;Group&gt;">
									<path id="&lt;Path&gt;" class="s25" d="m82.5 73.8c2.8 0 5.2-1.6 5-3.2 0-0.6-0.6-1.3-1.7-0.8-0.5 0.3-1.8 0.6-3.3 0.6-1.4-0.1-2.2-0.3-3-0.6-1.7-0.5-2.3 0.2-2.3 0.8-0.2 1.6 2.6 3.2 5.3 3.2z"/>
								</g>
								<path id="&lt;Path&gt;" class="s25" d="m51.6 60.5c0.4 5.7-2.5 10.6-6.4 10.9-4 0.4-7.6-4-8-9.7-0.4-5.7 1.8-10.1 5.8-10.8 3.9-0.7 8.2 3.9 8.6 9.6z"/>
								<path id="&lt;Path&gt;" class="s26" d="m68.5 59.2c0 1.4 1.1 2.5 2.5 2.5 1.3 0 2.4-1.1 2.4-2.5 0-1.3-1.1-2.4-2.4-2.4-1.4 0-2.5 1.1-2.5 2.4z"/>
								<path id="&lt;Path&gt;" class="s26" d="m90.3 59.6c0 1.3 1.1 2.5 2.5 2.5 1.4 0 2.5-1.1 2.5-2.5 0-1.3-1.1-2.4-2.5-2.4-1.4-0.1-2.5 1-2.5 2.4z"/>
								<path id="&lt;Path&gt;" class="s23" d=""/>
								<path id="&lt;Path&gt;" class="s23" d=""/>
								<path id="&lt;Path&gt;" class="s27" d="m64.2 49.1l11.1-0.2"/>
								<path id="&lt;Path&gt;" class="s27" d="m89.1 49.3l9.6 0.7"/>
								<path id="&lt;Path&gt;" class="s23" d="m45.6 46.5c0-8.7 3.9-16.4 10-21.5-3-3.6-4-9-3.4-9.5 1-0.8 14.4-10.7 30.1-1.6 10.8 6.2 15.8 10.4 13.9 14.8q0.1 0.1 0.1 0.2 0-0.1-0.1-0.1c-1.7 3.9-5.4 6.5-8.7 6.5-13.8 0-13.5-8.1-23.8-7.3-4 0.3-10.1 2.8-10.1 12.9 0 10.8-1.8 22.2-1.8 22.2-3.3 0.2-3.3-1.9-3.3-1.9 0-5.7-0.9-9-4.5-10.7z"/>
							</g>
							<path id="&lt;Path&gt;" class="s28" d="m86.4 83.3c-1.6 1.1-4.1 1.3-6.2 1.3-2.1 0-5.6-0.2-7.2-1.3"/>
							<g id="&lt;Group&gt;">
								<path id="&lt;Path&gt;" class="s17" d="m85.9 303.1q0-0.1 0-0.2 0 0.1 0 0.2z"/>
								<path id="&lt;Path&gt;" class="s17" d="m85.9 301.8q0 0 0 0.1 0-0.1 0-0.1z"/>
								<path id="&lt;Path&gt;" class="s22" d="m89.4 310.9c-1.1-6.6-2.6-12.9-2.6-12.9-2.4 8.1-11.6 9.7-16.5 9.5l0.3 18.1 9.9 61.3q0.2 0.7 0.4 1.6c-2.4-21.4 11-62 8.5-77.6z"/>
								<path id="&lt;Path&gt;" class="s17" d="m85.9 300.6q0 0.1 0 0.1 0 0 0-0.1z"/>
								<path id="&lt;Path&gt;" class="s17" d="m86.4 307q0-0.2-0.1-0.3 0.1 0.1 0.1 0.3z"/>
								<path id="&lt;Path&gt;" class="s17" d="m86.2 305.6q0-0.1 0-0.2 0 0.1 0 0.2z"/>
								<path id="&lt;Path&gt;" class="s17" d="m86 304.4q0-0.1 0-0.2 0 0.1 0 0.2z"/>
							</g>
							<g id="&lt;Group&gt;">
								<path id="&lt;Path&gt;" class="s24" d="m131.5 215c0.4 4.6-3 8.7-7.6 9.1l-55.8 4.8c-0.4 0-1.7-0.1-2.2-0.1-6.8 0-13.7-4.5-16.3-10.8l-10.6-22.9-4.2-13.9-10.5-25.1c-1.8-4.2 0.2-9.1 4.4-10.9 4.3-1.8 9.2 0.2 11 4.5l12.1 28.8 4.8 4.7 11.8 28.1c0.1 0.2 0.7 0.5 1 0.6l53.1-4.5c4.6-0.4 8.6 3.1 9 7.6z"/>
							</g>
							<path id="&lt;Path&gt;" class="s20" d="m47.8 113.6c-27.1 0-33 16.2-32.7 29.7 0.2 13.4 16.5 58.1 16.5 58.1l28.6-9.8-15.1-47.7z"/>
						</g>
						<path id="&lt;Path&gt;" class="s19" d="m47.2 113.6c13 0 16 20.8 15.8 34.4l-4.4 9.9-5.1-9.9c0.1-13.6-3.1-33.9-17.5-33.1 0 0 3.2-0.6 5.5-0.9 2.2-0.4 5.7-0.4 5.7-0.4z"/>
						<path id="&lt;Path&gt;" class="s19" d="m82.8 113.6c0 0-3.5-0.3-5.8 0q-0.1 0-0.2 0.1v1c0 0 0 0.4-0.2 0.9 10.1 3.7 12.5 20.6 12.4 32.4l5.5 6.6 3.9-6.6c0.2-13.6-2.7-34.4-15.6-34.4z"/>
					</g>
					<path id="&lt;Path&gt;" class="s29" d="m99.9 47.5l-0.2 6.1c-0.9-4.3-14.1-5.1-28.7-4.6-8.8 0.4-17.7 1-18 4.6 0.4-19.9 7.8-33.9 22.1-33.9 19.5 0 25.3 12.5 24.8 27.8z"/>
					<g id="&lt;Group&gt;">
						<path id="&lt;Path&gt;" class="s30" d="m98.4 38.4c-2.2-1.6-4.4-0.8-14.4-0.8-11.3 0-22.8 1.6-32.1 4.5-9.4 2.8-16.5 6.8-18.5 11.4-1 0.8-2.5-8.4-2.7-15q0-0.6 0-1.1c0-2.6 0.4-5.2 1-7.6 2.8-10.8 12-20 28.6-22.6 0 0 0.1-0.1 0.1-0.1q2.8-0.4 5.9-0.6 1.1-0.1 2.1-0.1c4.3 0 8.2 0.6 11.5 1.8q0.3 0.1 0.7 0.2c8.4 3.1 13.6 9.4 16.3 15.5 3.3 7.4 3 14.4 1.5 14.5z"/>
						<path id="&lt;Path&gt;" class="s31" d="m109.6 34.7c-3.4 0.2-7.2-0.2-11.2-0.1 1.2 3.9 1.6 8.3 1.5 12.9 25.3 1.3 30.6-13.8 9.7-12.8z"/>
						<path id="&lt;Path&gt;" class="s30" d="m33.4 53.6c2-4.7 9.1-8.7 18.5-11.5 9.3-2.9 20.8-4.5 32.1-4.5 10 0 12.2-0.8 14.4 0.8 1.5-0.1 1.8-7.1-1.5-14.5-2.7-6.1-7.9-12.4-16.4-15.5 7.3 4.5 8 16.2 8.5 19.8 0.5 4.2-11.2 5.1-29.3 9.5-18.2 4.5-26.1 11.3-26.3 15.9z"/>
					</g>
				</g>
			</g>
			<path id="&lt;Path&gt;" class="s32" d="m18.3 432.4c13.4 5.9 28.9 10.2 42.4 7.1q0.4-3 0.8-6c-8.5 2.4-18.3 0.8-26.6-1.4q-8.1-2.2-15.7-5.6z"/>
			<path id="&lt;Path&gt;" class="s32" d="m16.9 442.3c13.3 5.9 28.8 10.3 42.3 7.3q0.5-2.9 0.9-5.9c-8.5 2.3-18.2 0.6-26.3-1.6q-8.3-2.2-16.1-5.7z"/>
			<g id="&lt;Group&gt;" style="opacity: .7">
				<path id="&lt;Path&gt;" class="s33" d="m48.6 166.7c0 0.6 0.5 1.1 1 1.1h22.7c0.5 0 1-0.5 1-1.1v-15.3c0-0.6-0.5-1.1-1-1.1h-22.7c-0.5 0-1 0.5-1 1.1z"/>
			</g>
			<g id="&lt;Group&gt;">
				<path id="&lt;Path&gt;" class="s34" d="m51.4 162.7c0 0.6 0.5 1.1 1 1.1h22.7c0.5 0 1-0.5 1-1.1v-14.1c0-0.6-0.5-1.1-1-1.1h-22.7c-0.5 0-1 0.5-1 1.1z"/>
			</g>
			<g id="&lt;Group&gt;">
				<path id="&lt;Path&gt;" class="s35" d="m61 147.6c0 0.6 0.5 1 1.1 1h3.3c0.6 0 1.1-0.4 1.1-1v-5.4c0-0.5-0.5-1-1.1-1h-3.3c-0.6 0-1.1 0.5-1.1 1z"/>
			</g>
			<g id="&lt;Group&gt;" style="opacity: .6">
				<path id="&lt;Path&gt;" class="s36" d="m67.2 155.6c0 0.5 0.5 1 1.1 1h3.7c0.6 0 1.1-0.5 1.1-1v-3.6c0-0.6-0.5-1.1-1.1-1.1h-3.7c-0.6 0-1.1 0.5-1.1 1.1z"/>
			</g>
			<g id="&lt;Group&gt;">
				<g id="&lt;Group&gt;">
					<path id="&lt;Path&gt;" class="s6" d="m474.5 490.3c6.6 0 11.9 7.5 11.9 16.7 0 9.2-5.3 16.6-11.9 16.6h-16.9v-33.3z"/>
					<path id="&lt;Path&gt;" class="s7" d="m446.4 507c0 9.2 5.3 16.6 11.9 16.6 6.6 0 11.9-7.4 11.9-16.6 0-9.2-5.3-16.7-11.9-16.7-6.6 0-11.9 7.5-11.9 16.7z"/>
					<path id="&lt;Path&gt;" class="s8" d="m453.6 507c0 3.6 2.1 6.6 4.7 6.6 2.6 0 4.7-3 4.7-6.6 0-3.7-2.1-6.6-4.7-6.6-2.6 0-4.7 2.9-4.7 6.6z"/>
				</g>
				<g id="&lt;Group&gt;">
					<path id="&lt;Path&gt;" class="s9" d="m501.3 490.3c6.6 0 12 7.5 12 16.7 0 9.2-5.4 16.6-12 16.6h-16.8v-33.3z"/>
					<path id="&lt;Path&gt;" class="s7" d="m473.2 507c0 9.2 5.3 16.6 11.9 16.6 6.6 0 12-7.4 12-16.6 0-9.2-5.4-16.7-12-16.7-6.6 0-11.9 7.5-11.9 16.7z"/>
					<path id="&lt;Path&gt;" class="s8" d="m480.4 507c0 3.6 2.1 6.6 4.7 6.6 2.6 0 4.8-3 4.8-6.6 0-3.7-2.2-6.6-4.8-6.6-2.6 0-4.7 2.9-4.7 6.6z"/>
				</g>
				<path id="&lt;Path&gt;" class="s10" d="m233.1 491.5h321v-15.8h-321z"/>
				<path id="&lt;Path&gt;" class="s14" d="m146.9 491.5h342.6v-15.8h-342.6z"/>
				<path id="&lt;Path&gt;" class="s37" d="m247.5 491.5h184.8v-18.6h-184.8z"/>
				<path id="&lt;Path&gt;" class="s10" d="m543.8 491.5h10.3v-15.8h-10.3z"/>
			</g>
			<path id="&lt;Path&gt;" class="s15" d="m318.2 470.3l-33.4 3.7-6.9 0.8-13-1.5-26.1-3 4-14.1c2.4-9.1 6.7-14.2 14.5-14.2l37.2 0.1q0.2 0 0.4 0.1c7.7 0.2 15.3 6.4 17 14z"/>
			<g id="&lt;Group&gt;">
				<path id="&lt;Path&gt;" class="s38" d="m179.9 255.7c2.4 7.9-2.5 14.5-10.8 14.5l-11.6 0.1c-8.3 0.1-17.9-6.1-21.2-13.7l-11.4-26c-3.3-7.6 0.7-13.8 9-13.9l19.1-0.2c8.3-0.1 17 6.3 19.4 14.2z"/>
			</g>
			<g id="&lt;Group&gt;">
				<g id="&lt;Group&gt;">
					<g id="&lt;Group&gt;">
						<g id="&lt;Group&gt;">
							<g id="&lt;Group&gt;">
								<g id="&lt;Group&gt;">
									<g id="&lt;Group&gt;">
										<path id="&lt;Path&gt;" class="s39" d="m658.1 103.8v140.3h-110.4v-140.3z"/>
										<path id="&lt;Path&gt;" class="s40" d="m556.4 244.1h-97.5v-140.3h97.5z"/>
										<g id="&lt;Group&gt;">
											<path id="&lt;Path&gt;" class="s41" d="m658.2 173.7h-201.3"/>
										</g>
										<path id="&lt;Path&gt;" class="s42" d="m611.7 118.1h-12.1v-14.3h12.1z"/>
										<path id="&lt;Path&gt;" class="s43" d="m473.1 168.2h-11.3v-10.3h11.3z"/>
										<g id="&lt;Group&gt;" style="opacity: .2">
											<path id="&lt;Path&gt;" class="s13" d="m530.7 168.2h-18.9v-10.3h18.9z"/>
										</g>
										<g id="&lt;Group&gt;" style="opacity: .2">
											<path id="&lt;Path&gt;" class="s13" d="m543 168.2h-9.7v-10.3h9.7z"/>
										</g>
										<g id="&lt;Group&gt;" style="opacity: .2">
											<path id="&lt;Path&gt;" class="s13" d="m530.7 239.3h-18.9v-10.3h18.9z"/>
										</g>
										<g id="&lt;Group&gt;" style="opacity: .2">
											<path id="&lt;Path&gt;" class="s13" d="m543 239.3h-9.7v-10.3h9.7z"/>
										</g>
										<path id="&lt;Path&gt;" class="s43" d="m473.1 239.9h-11.3v-10.3h11.3z"/>
										<path id="&lt;Path&gt;" class="s42" d="m612.8 186.7h-12.1v-14.3h12.1z"/>
									</g>
								</g>
								<g id="&lt;Group&gt;">
									<g id="&lt;Group&gt;">
										<path id="&lt;Path&gt;" class="s44" d="m468.2 244.1h-114.5v-140.3h114.5z"/>
										<path id="&lt;Path&gt;" class="s40" d="m366.5 244.1h-76.3v-140.3h76.3z"/>
										<g id="&lt;Group&gt;">
											<path id="&lt;Path&gt;" class="s41" d="m468.3 173.7h-177.9"/>
										</g>
										<path id="&lt;Path&gt;" class="s45" d="m430.6 117h-12.1v-13.2h12.1z"/>
										<g id="&lt;Group&gt;" style="opacity: .3">
											<path id="&lt;Path&gt;" class="s13" d="m336.7 168.2h-9.7v-10.3h9.7z"/>
										</g>
										<g id="&lt;Group&gt;" style="opacity: .3">
											<path id="&lt;Path&gt;" class="s13" d="m349.1 168.2h-9.7v-10.3h9.7z"/>
										</g>
										<g id="&lt;Group&gt;" style="opacity: .3">
											<path id="&lt;Path&gt;" class="s13" d="m361.1 168.2h-9.7v-10.3h9.7z"/>
										</g>
										<g id="&lt;Group&gt;" style="opacity: .3">
											<path id="&lt;Path&gt;" class="s13" d="m336.7 239.3h-9.7v-10.3h9.7z"/>
										</g>
										<g id="&lt;Group&gt;" style="opacity: .3">
											<path id="&lt;Path&gt;" class="s13" d="m349.1 239.3h-9.7v-10.3h9.7z"/>
										</g>
										<g id="&lt;Group&gt;" style="opacity: .3">
											<path id="&lt;Path&gt;" class="s13" d="m361.1 239.3h-9.7v-10.3h9.7z"/>
										</g>
										<path id="&lt;Path&gt;" class="s45" d="m431.6 188.9h-12.1v-16.5h12.1z"/>
									</g>
									<g id="&lt;Group&gt;">
										<path id="&lt;Path&gt;" class="s39" d="m551.1 244.1h-114.6v-140.3h114.6z"/>
										<path id="&lt;Path&gt;" class="s40" d="m449.3 244.1h-76.2v-140.3h76.2z"/>
										<g id="&lt;Group&gt;">
											<path id="&lt;Path&gt;" class="s41" d="m551.1 173.7h-177.8"/>
										</g>
										<path id="&lt;Path&gt;" class="s42" d="m504.3 118.1h-12.1v-14.3h12.1z"/>
										<g id="&lt;Group&gt;" style="opacity: .3">
											<path id="&lt;Path&gt;" class="s13" d="m419.5 168.2h-9.7v-10.3h9.7z"/>
										</g>
										<g id="&lt;Group&gt;" style="opacity: .3">
											<path id="&lt;Path&gt;" class="s13" d="m431.9 168.2h-9.7v-10.3h9.7z"/>
										</g>
										<g id="&lt;Group&gt;" style="opacity: .3">
											<path id="&lt;Path&gt;" class="s13" d="m443.9 168.2h-9.7v-10.3h9.7z"/>
										</g>
										<g id="&lt;Group&gt;" style="opacity: .3">
											<path id="&lt;Path&gt;" class="s13" d="m419.5 239.3h-9.7v-10.3h9.7z"/>
										</g>
										<g id="&lt;Group&gt;" style="opacity: .3">
											<path id="&lt;Path&gt;" class="s13" d="m431.9 239.3h-9.7v-10.3h9.7z"/>
										</g>
										<g id="&lt;Group&gt;" style="opacity: .3">
											<path id="&lt;Path&gt;" class="s13" d="m443.9 239.3h-9.7v-10.3h9.7z"/>
										</g>
										<path id="&lt;Path&gt;" class="s42" d="m504.3 186.7h-12.1v-14.3h12.1z"/>
									</g>
								</g>
							</g>
							<g id="&lt;Group&gt;">
								<g id="&lt;Group&gt;">
									<g id="&lt;Group&gt;">
										<path id="&lt;Path&gt;" class="s39" d="m658.1 243v211.2h-110.4v-211.2z"/>
										<path id="&lt;Path&gt;" class="s40" d="m556.4 454.2h-97.5v-211.2h97.5z"/>
										<g id="&lt;Group&gt;">
											<path id="&lt;Path&gt;" class="s41" d="m657.1 313.4h-203.4"/>
											<path id="&lt;Path&gt;" class="s41" d="m657.8 383.8h-204.1"/>
										</g>
										<path id="&lt;Path&gt;" class="s42" d="m611.7 326.4h-12.1v-14.3h12.1z"/>
										<path id="&lt;Path&gt;" class="s43" d="m473.1 378.3h-11.3v-10.2h11.3z"/>
										<g id="&lt;Group&gt;" style="opacity: .2">
											<path id="&lt;Path&gt;" class="s13" d="m530.7 378.3h-18.9v-10.2h18.9z"/>
										</g>
										<g id="&lt;Group&gt;" style="opacity: .2">
											<path id="&lt;Path&gt;" class="s13" d="m543 378.3h-9.7v-10.2h9.7z"/>
										</g>
										<g id="&lt;Group&gt;" style="opacity: .2">
											<path id="&lt;Path&gt;" class="s13" d="m530.7 307.1h-18.9v-10.3h18.9z"/>
										</g>
										<g id="&lt;Group&gt;" style="opacity: .2">
											<path id="&lt;Path&gt;" class="s13" d="m543 307.1h-9.7v-10.3h9.7z"/>
										</g>
										<g id="&lt;Group&gt;" style="opacity: .2">
											<path id="&lt;Path&gt;" class="s13" d="m530.7 449.4h-18.9v-10.3h18.9z"/>
										</g>
										<g id="&lt;Group&gt;" style="opacity: .2">
											<path id="&lt;Path&gt;" class="s13" d="m543 449.4h-9.7v-10.3h9.7z"/>
										</g>
										<path id="&lt;Path&gt;" class="s43" d="m473.1 450h-11.3v-10.3h11.3z"/>
										<path id="&lt;Path&gt;" class="s43" d="m473.1 307.9h-11.3v-10.3h11.3z"/>
										<path id="&lt;Path&gt;" class="s42" d="m612.8 396.8h-12.1v-14.3h12.1z"/>
									</g>
								</g>
								<g id="&lt;Group&gt;">
									<g id="&lt;Group&gt;">
										<path id="&lt;Path&gt;" class="s44" d="m468.2 454.2h-114.5v-211.2h114.5z"/>
										<path id="&lt;Path&gt;" class="s40" d="m366.5 454.2h-76.3v-211.2h76.3z"/>
										<g id="&lt;Group&gt;">
											<path id="&lt;Path&gt;" class="s41" d="m465 313.4h-174.7"/>
											<path id="&lt;Path&gt;" class="s41" d="m465 383.8h-173.5"/>
										</g>
										<path id="&lt;Path&gt;" class="s45" d="m430.6 325.4h-12.1v-13.2h12.1z"/>
										<g id="&lt;Group&gt;" style="opacity: .3">
											<path id="&lt;Path&gt;" class="s13" d="m336.7 378.3h-9.7v-10.2h9.7z"/>
										</g>
										<g id="&lt;Group&gt;" style="opacity: .3">
											<path id="&lt;Path&gt;" class="s13" d="m349.1 378.3h-9.7v-10.2h9.7z"/>
										</g>
										<g id="&lt;Group&gt;" style="opacity: .3">
											<path id="&lt;Path&gt;" class="s13" d="m361.1 378.3h-9.7v-10.2h9.7z"/>
										</g>
										<g id="&lt;Group&gt;" style="opacity: .3">
											<path id="&lt;Path&gt;" class="s13" d="m336.7 307.1h-9.7v-10.3h9.7z"/>
										</g>
										<g id="&lt;Group&gt;" style="opacity: .3">
											<path id="&lt;Path&gt;" class="s13" d="m349.1 307.1h-9.7v-10.3h9.7z"/>
										</g>
										<g id="&lt;Group&gt;" style="opacity: .3">
											<path id="&lt;Path&gt;" class="s13" d="m361.1 307.1h-9.7v-10.3h9.7z"/>
										</g>
										<g id="&lt;Group&gt;" style="opacity: .3">
											<path id="&lt;Path&gt;" class="s13" d="m336.7 449.4h-9.7v-10.3h9.7z"/>
										</g>
										<g id="&lt;Group&gt;" style="opacity: .3">
											<path id="&lt;Path&gt;" class="s13" d="m349.1 449.4h-9.7v-10.3h9.7z"/>
										</g>
										<g id="&lt;Group&gt;" style="opacity: .3">
											<path id="&lt;Path&gt;" class="s13" d="m361.1 449.4h-9.7v-10.3h9.7z"/>
										</g>
										<path id="&lt;Path&gt;" class="s45" d="m431.6 254.2h-12.1v-11.2h12.1z"/>
										<path id="&lt;Path&gt;" class="s45" d="m431.6 399h-12.1v-16.5h12.1z"/>
									</g>
									<g id="&lt;Group&gt;">
										<path id="&lt;Path&gt;" class="s39" d="m551.1 454.2h-114.6v-211.2h114.6z"/>
										<path id="&lt;Path&gt;" class="s40" d="m449.3 454.2h-76.2v-211.2h76.2z"/>
										<g id="&lt;Group&gt;">
											<path id="&lt;Path&gt;" class="s41" d="m550.8 313.4h-180.8"/>
											<path id="&lt;Path&gt;" class="s41" d="m550.8 383.8h-180.8"/>
										</g>
										<path id="&lt;Path&gt;" class="s42" d="m504.3 326.4h-12.1v-14.3h12.1z"/>
										<g id="&lt;Group&gt;" style="opacity: .3">
											<path id="&lt;Path&gt;" class="s13" d="m419.5 378.3h-9.7v-10.2h9.7z"/>
										</g>
										<g id="&lt;Group&gt;" style="opacity: .3">
											<path id="&lt;Path&gt;" class="s13" d="m431.9 378.3h-9.7v-10.2h9.7z"/>
										</g>
										<g id="&lt;Group&gt;" style="opacity: .3">
											<path id="&lt;Path&gt;" class="s13" d="m443.9 378.3h-9.7v-10.2h9.7z"/>
										</g>
										<g id="&lt;Group&gt;" style="opacity: .3">
											<path id="&lt;Path&gt;" class="s13" d="m419.5 307.1h-9.7v-10.3h9.7z"/>
										</g>
										<g id="&lt;Group&gt;" style="opacity: .3">
											<path id="&lt;Path&gt;" class="s13" d="m431.9 307.1h-9.7v-10.3h9.7z"/>
										</g>
										<g id="&lt;Group&gt;" style="opacity: .3">
											<path id="&lt;Path&gt;" class="s13" d="m443.9 307.1h-9.7v-10.3h9.7z"/>
										</g>
										<g id="&lt;Group&gt;" style="opacity: .3">
											<path id="&lt;Path&gt;" class="s13" d="m419.5 449.4h-9.7v-10.3h9.7z"/>
										</g>
										<g id="&lt;Group&gt;" style="opacity: .3">
											<path id="&lt;Path&gt;" class="s13" d="m431.9 449.4h-9.7v-10.3h9.7z"/>
										</g>
										<g id="&lt;Group&gt;" style="opacity: .3">
											<path id="&lt;Path&gt;" class="s13" d="m443.9 449.4h-9.7v-10.3h9.7z"/>
										</g>
										<path id="&lt;Path&gt;" class="s42" d="m506.2 396.8h-12.1v-14.3h12.1z"/>
									</g>
								</g>
							</g>
							<path id="&lt;Path&gt;" class="s41" d="m290 243.3h368.5"/>
							<path id="&lt;Path&gt;" class="s42" d="m612.8 257.4h-12.1v-14.3h12.1z"/>
							<path id="&lt;Path&gt;" class="s42" d="m504.3 257.4h-12.1v-14.3h12.1z"/>
						</g>
						<g id="&lt;Group&gt;">
							<g id="&lt;Group&gt;">
								<g id="&lt;Group&gt;">
									<path id="&lt;Path&gt;" class="s46" d="m647 465.3h36.6v-11.4h-36.6z"/>
									<path id="&lt;Path&gt;" class="s47" d="m427 453.9h220.6v11.7h-220.6z"/>
									<path id="&lt;Path&gt;" class="s48" d="m602.1 465.3h27.7l8.9-11.4h-8.8z"/>
									<path id="&lt;Path&gt;" class="s48" d="m549.9 465.3h27.7l8.9-11.4h-9.1z"/>
									<path id="&lt;Path&gt;" class="s48" d="m495.3 465.3h27.7l8.9-11.4h-8.2z"/>
									<path id="&lt;Path&gt;" class="s48" d="m442 465.3h27.7l8.9-11.4h-8.2z"/>
								</g>
								<g id="&lt;Group&gt;">
									<path id="&lt;Path&gt;" class="s46" d="m540.3 465.3h36.6v-11.4h-36.6z"/>
								</g>
								<g id="&lt;Group&gt;">
									<path id="&lt;Path&gt;" class="s46" d="m593.7 465.3h36.5v-11.4h-36.5z"/>
								</g>
								<g id="&lt;Group&gt;">
									<path id="&lt;Path&gt;" class="s46" d="m487 465.3h36.5v-11.4h-36.5z"/>
								</g>
								<g id="&lt;Group&gt;">
									<path id="&lt;Path&gt;" class="s47" d="m262.4 453.9h184v11.8h-184z"/>
								</g>
							</g>
							<g id="&lt;Group&gt;">
								<path id="&lt;Path&gt;" class="s2" d="m359.3 499.7h24.7v-25.6h-24.7z"/>
								<path id="&lt;Path&gt;" class="s2" d="m285.1 499.7h24.7v-25.6h-24.7z"/>
								<path id="&lt;Path&gt;" class="s48" d="m625.5 502.8h24.1v-23.5h-24.1z"/>
								<path id="&lt;Path&gt;" class="s2" d="m625.5 502.8l20-25.4h-23.8l3.8 18-3.8 5.3z"/>
								<path id="&lt;Path&gt;" class="s48" d="m542.4 502.8h24.1v-25.7h-24.1z"/>
								<path id="&lt;Path&gt;" class="s48" d="m521.8 502.8h24.1v-25.7h-24.1z"/>
								<path id="&lt;Path&gt;" class="s48" d="m429.3 502.8h24.1v-25.7h-24.1z"/>
								<path id="&lt;Path&gt;" class="s49" d="m649.4 502.8h34.2v-31.4l-34.2 5.7z"/>
								<path id="&lt;Path&gt;" class="s49" d="m541.4 502.8h34.1v-30.8l-34.1 5.1z"/>
								<path id="&lt;Path&gt;" class="s49" d="m433.6 502.8h34.1v-31.1l-34.1 5.4z"/>
								<path id="&lt;Path&gt;" class="s50" d="m410 502.8h24.1v-25.7l-24.1-4.8z"/>
								<path id="&lt;Path&gt;" class="s50" d="m262.5 502.8h24.1v-25.7l-24.1-5.7z"/>
								<path id="&lt;Path&gt;" class="s50" d="m336.3 502.8h24.1v-25.7l-24.1-7z"/>
								<path id="&lt;Path&gt;" class="s49" d="m433.6 465.1v12h250v-12z"/>
								<path id="&lt;Path&gt;" class="s50" d="m262.5 465.1h171.6v12h-171.6z"/>
								<path id="&lt;Path&gt;" class="s50" d="m262.5 495h171.6v7.8h-171.6z"/>
								<path id="&lt;Path&gt;" class="s2" d="m521.6 502.8l23.9-25.9h-23.9v18.2l-4.7 6.2z"/>
							</g>
							<path id="&lt;Path&gt;" class="s46" d="m434.1 465.4h36.6v-11.5h-36.6z"/>
						</g>
					</g>
				</g>
				<g id="&lt;Group&gt;">
					<g id="&lt;Group&gt;">
						<g id="&lt;Group&gt;">
							<path id="&lt;Path&gt;" class="s11" d="m468 476.8v15h55.5v-15z"/>
						</g>
					</g>
				</g>
				<g id="&lt;Group&gt;">
					<g id="&lt;Group&gt;">
						<g id="&lt;Group&gt;">
							<path id="&lt;Path&gt;" class="s11" d="m575.6 477.3v15h55.3v-15z"/>
						</g>
					</g>
				</g>
			</g>
			<g id="&lt;Group&gt;">
				<g id="&lt;Group&gt;">
					<path id="&lt;Path&gt;" class="s37" d="m468 476.8v15l13.3-15z"/>
				</g>
			</g>
			<g id="&lt;Group&gt;">
				<g id="&lt;Group&gt;">
					<path id="&lt;Path&gt;" class="s37" d="m575.8 477.2v15l13.3-15z"/>
				</g>
			</g>
			<path id="&lt;Path&gt;" class="s24" d="m132.5 227.8c-0.9 0-1.9 0-3-0.1-3-7.5-7.8-11.9-10-7.9-0.4-3.2-0.6-7.5-5.1-7.8 0 0-5.1-2.6-0.6-3.7 6.4-1.4 13.5-2.8 17.1-2.6 7.2 0.2 8.2 3.5 9 10 0.8 5.5-2.4 12.1-7.4 12.1z"/>
			<path id="&lt;Path&gt;" class="s24" d="m148.3 211c5.7 0.4 6.5 7.1 6.6 10.1 0.1 4.4 6 6.3 10 6.3 5.9 0 9-7.2 8.3-12.3-0.9-6.5-3.7-10.4-11.7-9.9-3.6 0.2-6.7 0.7-10.8 1.4-4.4 0.8-2.4 4.4-2.4 4.4z"/>
			<g id="&lt;Group&gt;">
				<g id="&lt;Group&gt;">
					<path id="&lt;Path&gt;" class="s10" d="m516.2 476.8v15h29.6v-15z"/>
				</g>
			</g>
			<g id="&lt;Group&gt;">
				<g id="&lt;Group&gt;">
					<path id="&lt;Path&gt;" class="s10" d="m628 477.3v15h29.6v-15z"/>
				</g>
			</g>
			<path id="&lt;Path&gt;" class="s51" d="m133.6 208.2c8.4 0.8 12 7.2 11.1 13.3"/>
			<path id="&lt;Path&gt;" class="s52" d="m84.6 450.1l-0.2-4.4-0.1-0.8v-1.2c13.7-0.4 27.7-1.4 41.3-3.7l0.1 2.7 0.1 3.8c-13.6 2.2-27.5 3.3-41.2 3.6z"/>
			<path id="&lt;Path&gt;" class="s52" d="m125.4 436.8c-13.7 1.9-27.5 3-41.3 3.3l-0.1-0.7v-0.2l-0.3-5.5c13.9-0.3 27.7-1.4 41.5-3.4l0.1 3 0.1 2.8z"/>
			<path id="&lt;Path&gt;" class="s20" d="m51.9 42.1c-3-14-9.3-34.4 22.4-34.1 32.7 0.4 24.5 31.6 24.5 31.6z"/>
			<path id="&lt;Path&gt;" class="s53" d="m115.5 34.9c-8.3-0.2-11.1 3.7-28.5 9.4-13.2 4.3-26-0.2-35.1-2.2 3.1-2.9 34.7-7.7 52.2-7.8 4.5-0.1 10.6 0.5 11.4 0.6z"/>
		</g>
	</g>
</svg>